<svg xmlns="http://www.w3.org/2000/svg" viewBox="0 0 1330 384" width="1330" height="384" role="img" aria-label="Planeir logo">
  <g fill="#F3F8FF" fill-rule="evenodd">
    <path d="M 1086.0,181.0 L 1086.0,185.0 L 1090.0,187.0 L 1098.0,195.0 L 1101.0,200.0 L 1101.0,203.0 L 1103.0,205.0 L 1103.0,210.0 L 1105.0,213.0 L 1105.0,349.0 L 1103.0,351.0 L 1103.0,358.0 L 1101.0,361.0 L 1100.0,366.0 L 1106.0,366.0 L 1107.0,367.0 L 1113.0,367.0 L 1114.0,366.0 L 1165.0,366.0 L 1165.0,364.0 L 1162.0,362.0 L 1155.0,352.0 L 1152.0,339.0 L 1152.0,299.0 L 1154.0,297.0 L 1164.0,306.0 L 1168.0,312.0 L 1174.0,317.0 L 1187.0,332.0 L 1210.0,354.0 L 1218.0,360.0 L 1220.0,360.0 L 1224.0,364.0 L 1226.0,364.0 L 1236.0,370.0 L 1242.0,371.0 L 1244.0,373.0 L 1249.0,373.0 L 1251.0,375.0 L 1258.0,375.0 L 1261.0,377.0 L 1283.0,377.0 L 1287.0,375.0 L 1294.0,375.0 L 1297.0,373.0 L 1301.0,373.0 L 1313.0,368.0 L 1322.0,362.0 L 1323.0,360.0 L 1322.0,359.0 L 1319.0,360.0 L 1295.0,360.0 L 1292.0,358.0 L 1286.0,358.0 L 1265.0,349.0 L 1255.0,340.0 L 1251.0,338.0 L 1210.0,297.0 L 1212.0,295.0 L 1218.0,295.0 L 1220.0,293.0 L 1223.0,293.0 L 1239.0,284.0 L 1252.0,271.0 L 1252.0,269.0 L 1258.0,262.0 L 1258.0,259.0 L 1260.0,257.0 L 1263.0,246.0 L 1263.0,230.0 L 1251.0,204.0 L 1241.0,194.0 L 1234.0,189.0 L 1220.0,183.0 L 1210.0,182.0 L 1209.0,181.0 L 1193.0,181.0 L 1190.0,183.0 L 1185.0,183.0 L 1183.0,185.0 L 1179.0,185.0 L 1177.0,187.0 L 1175.0,187.0 L 1167.0,192.0 L 1154.0,204.0 L 1152.0,202.0 L 1152.0,183.0 L 1151.0,180.0 L 1087.0,180.0 Z M 1211.0,211.0 L 1215.0,215.0 L 1220.0,224.0 L 1223.0,236.0 L 1222.0,256.0 L 1216.0,269.0 L 1203.0,282.0 L 1201.0,282.0 L 1199.0,284.0 L 1187.0,289.0 L 1183.0,289.0 L 1180.0,291.0 L 1154.0,291.0 L 1152.0,289.0 L 1152.0,231.0 L 1153.0,230.0 L 1152.0,221.0 L 1153.0,219.0 L 1165.0,209.0 L 1178.0,204.0 L 1196.0,204.0 Z M 998.0,180.0 L 997.0,184.0 L 1006.0,191.0 L 1012.0,201.0 L 1013.0,212.0 L 1014.0,213.0 L 1014.0,366.0 L 1068.0,366.0 L 1073.0,367.0 L 1075.0,365.0 L 1070.0,360.0 L 1070.0,358.0 L 1066.0,352.0 L 1066.0,348.0 L 1064.0,346.0 L 1064.0,181.0 L 1063.0,180.0 Z M 845.0,183.0 L 843.0,185.0 L 841.0,185.0 L 830.0,191.0 L 809.0,210.0 L 799.0,224.0 L 799.0,226.0 L 797.0,228.0 L 796.0,232.0 L 794.0,234.0 L 794.0,237.0 L 790.0,244.0 L 790.0,248.0 L 788.0,250.0 L 788.0,256.0 L 786.0,261.0 L 786.0,274.0 L 785.0,275.0 L 786.0,276.0 L 786.0,294.0 L 788.0,299.0 L 788.0,303.0 L 790.0,306.0 L 790.0,310.0 L 792.0,312.0 L 792.0,316.0 L 801.0,332.0 L 815.0,347.0 L 830.0,358.0 L 832.0,358.0 L 834.0,360.0 L 838.0,360.0 L 845.0,364.0 L 849.0,364.0 L 851.0,366.0 L 856.0,366.0 L 860.0,368.0 L 872.0,369.0 L 873.0,370.0 L 901.0,371.0 L 902.0,370.0 L 922.0,368.0 L 925.0,366.0 L 930.0,366.0 L 933.0,364.0 L 937.0,364.0 L 939.0,362.0 L 942.0,362.0 L 944.0,360.0 L 947.0,360.0 L 969.0,347.0 L 986.0,331.0 L 997.0,316.0 L 997.0,314.0 L 1001.0,308.0 L 1001.0,302.0 L 1003.0,298.0 L 1003.0,289.0 L 1004.0,288.0 L 1003.0,286.0 L 1001.0,286.0 L 997.0,295.0 L 987.0,306.0 L 967.0,323.0 L 953.0,330.0 L 948.0,334.0 L 922.0,341.0 L 892.0,341.0 L 883.0,339.0 L 877.0,336.0 L 874.0,336.0 L 861.0,327.0 L 855.0,321.0 L 848.0,312.0 L 843.0,300.0 L 846.0,297.0 L 851.0,297.0 L 854.0,295.0 L 867.0,293.0 L 869.0,291.0 L 875.0,291.0 L 878.0,289.0 L 892.0,286.0 L 895.0,284.0 L 899.0,284.0 L 901.0,282.0 L 905.0,282.0 L 907.0,280.0 L 911.0,280.0 L 913.0,278.0 L 916.0,278.0 L 926.0,273.0 L 929.0,273.0 L 931.0,271.0 L 934.0,271.0 L 936.0,269.0 L 939.0,269.0 L 941.0,267.0 L 955.0,261.0 L 965.0,254.0 L 973.0,246.0 L 977.0,240.0 L 980.0,229.0 L 978.0,214.0 L 975.0,206.0 L 971.0,200.0 L 961.0,190.0 L 954.0,187.0 L 950.0,183.0 L 937.0,178.0 L 924.0,176.0 L 920.0,174.0 L 881.0,174.0 L 874.0,176.0 L 867.0,176.0 L 856.0,179.0 L 853.0,181.0 L 850.0,181.0 L 848.0,183.0 Z M 926.0,209.0 L 930.0,216.0 L 930.0,230.0 L 926.0,235.0 L 926.0,237.0 L 915.0,248.0 L 913.0,248.0 L 902.0,256.0 L 899.0,256.0 L 897.0,258.0 L 895.0,258.0 L 883.0,265.0 L 880.0,265.0 L 878.0,267.0 L 874.0,267.0 L 872.0,269.0 L 869.0,269.0 L 851.0,276.0 L 847.0,276.0 L 844.0,278.0 L 840.0,275.0 L 841.0,254.0 L 842.0,253.0 L 842.0,247.0 L 844.0,244.0 L 844.0,240.0 L 857.0,217.0 L 865.0,209.0 L 872.0,204.0 L 874.0,204.0 L 880.0,200.0 L 883.0,200.0 L 885.0,198.0 L 910.0,198.0 L 912.0,200.0 L 915.0,200.0 Z M 734.0,189.0 L 722.0,181.0 L 719.0,181.0 L 717.0,179.0 L 714.0,179.0 L 707.0,176.0 L 701.0,176.0 L 698.0,174.0 L 663.0,174.0 L 644.0,179.0 L 642.0,181.0 L 636.0,183.0 L 632.0,187.0 L 625.0,191.0 L 610.0,205.0 L 608.0,203.0 L 608.0,196.0 L 606.0,193.0 L 606.0,184.0 L 604.0,179.0 L 559.0,179.0 L 557.0,180.0 L 557.0,190.0 L 559.0,197.0 L 559.0,366.0 L 561.0,367.0 L 562.0,366.0 L 569.0,366.0 L 570.0,367.0 L 572.0,366.0 L 606.0,366.0 L 610.0,367.0 L 611.0,366.0 L 611.0,250.0 L 612.0,249.0 L 613.0,238.0 L 615.0,236.0 L 617.0,230.0 L 630.0,217.0 L 637.0,213.0 L 640.0,213.0 L 642.0,211.0 L 646.0,211.0 L 649.0,209.0 L 674.0,209.0 L 680.0,211.0 L 690.0,217.0 L 697.0,224.0 L 701.0,230.0 L 704.0,242.0 L 704.0,253.0 L 705.0,254.0 L 705.0,366.0 L 755.0,366.0 L 756.0,367.0 L 758.0,366.0 L 758.0,239.0 L 757.0,238.0 L 757.0,230.0 L 755.0,227.0 L 755.0,222.0 L 753.0,220.0 L 753.0,216.0 L 751.0,214.0 L 746.0,202.0 Z M 353.0,187.0 L 354.0,194.0 L 356.0,197.0 L 356.0,201.0 L 358.0,204.0 L 358.0,207.0 L 360.0,209.0 L 360.0,214.0 L 362.0,217.0 L 362.0,220.0 L 388.0,209.0 L 396.0,208.0 L 401.0,206.0 L 409.0,206.0 L 410.0,205.0 L 441.0,206.0 L 455.0,211.0 L 464.0,219.0 L 470.0,230.0 L 470.0,234.0 L 472.0,239.0 L 472.0,254.0 L 470.0,256.0 L 434.0,256.0 L 433.0,257.0 L 429.0,256.0 L 428.0,257.0 L 407.0,258.0 L 397.0,261.0 L 391.0,261.0 L 388.0,263.0 L 379.0,265.0 L 377.0,267.0 L 374.0,267.0 L 372.0,269.0 L 364.0,272.0 L 356.0,278.0 L 347.0,287.0 L 347.0,289.0 L 343.0,293.0 L 343.0,295.0 L 339.0,302.0 L 339.0,307.0 L 337.0,311.0 L 337.0,327.0 L 339.0,330.0 L 339.0,334.0 L 341.0,337.0 L 341.0,340.0 L 349.0,352.0 L 358.0,360.0 L 360.0,360.0 L 369.0,366.0 L 389.0,371.0 L 402.0,371.0 L 403.0,372.0 L 404.0,371.0 L 421.0,371.0 L 422.0,370.0 L 428.0,370.0 L 431.0,368.0 L 435.0,368.0 L 438.0,366.0 L 441.0,366.0 L 443.0,364.0 L 446.0,364.0 L 455.0,358.0 L 459.0,357.0 L 471.0,347.0 L 475.0,351.0 L 475.0,355.0 L 480.0,366.0 L 522.0,366.0 L 526.0,367.0 L 527.0,365.0 L 524.0,360.0 L 524.0,354.0 L 522.0,351.0 L 522.0,230.0 L 520.0,227.0 L 520.0,222.0 L 518.0,219.0 L 516.0,210.0 L 507.0,196.0 L 494.0,185.0 L 492.0,185.0 L 487.0,181.0 L 482.0,179.0 L 479.0,179.0 L 472.0,176.0 L 467.0,176.0 L 463.0,174.0 L 449.0,174.0 L 446.0,172.0 L 416.0,172.0 L 411.0,174.0 L 399.0,174.0 L 393.0,176.0 L 387.0,176.0 L 379.0,179.0 L 375.0,179.0 L 372.0,181.0 L 368.0,181.0 Z M 472.0,282.0 L 472.0,318.0 L 468.0,324.0 L 460.0,332.0 L 454.0,336.0 L 440.0,341.0 L 414.0,342.0 L 402.0,338.0 L 395.0,332.0 L 390.0,323.0 L 390.0,306.0 L 397.0,295.0 L 402.0,291.0 L 419.0,284.0 L 423.0,284.0 L 427.0,282.0 L 436.0,282.0 L 439.0,280.0 L 470.0,280.0 Z M 254.0,73.0 L 253.0,74.0 L 253.0,366.0 L 306.0,366.0 L 306.0,212.0 L 307.0,211.0 L 307.0,204.0 L 306.0,203.0 L 306.0,160.0 L 307.0,159.0 L 307.0,85.0 L 306.0,84.0 L 306.0,73.0 Z M 176.0,81.0 L 166.0,79.0 L 164.0,77.0 L 159.0,77.0 L 156.0,75.0 L 149.0,75.0 L 145.0,73.0 L 6.0,73.0 L 6.0,366.0 L 8.0,367.0 L 10.0,366.0 L 11.0,367.0 L 19.0,367.0 L 20.0,366.0 L 42.0,366.0 L 43.0,367.0 L 57.0,366.0 L 58.0,367.0 L 60.0,366.0 L 60.0,258.0 L 62.0,256.0 L 146.0,256.0 L 149.0,254.0 L 164.0,252.0 L 166.0,250.0 L 170.0,250.0 L 182.0,245.0 L 197.0,236.0 L 217.0,216.0 L 222.0,207.0 L 222.0,205.0 L 224.0,203.0 L 224.0,200.0 L 228.0,193.0 L 228.0,188.0 L 230.0,184.0 L 231.0,154.0 L 230.0,153.0 L 230.0,145.0 L 228.0,140.0 L 228.0,136.0 L 226.0,133.0 L 226.0,130.0 L 224.0,128.0 L 224.0,125.0 L 220.0,120.0 L 220.0,118.0 L 215.0,110.0 L 196.0,92.0 L 187.0,86.0 L 185.0,86.0 Z M 62.0,105.0 L 119.0,105.0 L 121.0,107.0 L 129.0,107.0 L 132.0,109.0 L 137.0,109.0 L 140.0,111.0 L 143.0,111.0 L 153.0,116.0 L 166.0,129.0 L 170.0,135.0 L 170.0,138.0 L 172.0,140.0 L 172.0,143.0 L 175.0,150.0 L 176.0,174.0 L 175.0,175.0 L 175.0,181.0 L 170.0,196.0 L 166.0,202.0 L 155.0,213.0 L 143.0,219.0 L 132.0,222.0 L 126.0,222.0 L 123.0,224.0 L 62.0,224.0 L 60.0,222.0 L 60.0,107.0 Z M 987.0,10.0 L 976.0,21.0 L 974.0,28.0 L 975.0,39.0 L 978.0,45.0 L 984.0,52.0 L 984.0,54.0 L 993.0,70.0 L 993.0,74.0 L 997.0,81.0 L 997.0,86.0 L 999.0,88.0 L 1002.0,101.0 L 1004.0,103.0 L 1004.0,107.0 L 1006.0,110.0 L 1006.0,113.0 L 1008.0,115.0 L 1008.0,119.0 L 1012.0,126.0 L 1015.0,137.0 L 1018.0,140.0 L 1023.0,142.0 L 1033.0,142.0 L 1044.0,132.0 L 1049.0,125.0 L 1049.0,122.0 L 1051.0,120.0 L 1051.0,118.0 L 1055.0,111.0 L 1055.0,108.0 L 1057.0,106.0 L 1057.0,103.0 L 1060.0,98.0 L 1060.0,95.0 L 1062.0,93.0 L 1062.0,89.0 L 1064.0,87.0 L 1064.0,83.0 L 1068.0,74.0 L 1068.0,70.0 L 1070.0,67.0 L 1070.0,63.0 L 1073.0,54.0 L 1073.0,46.0 L 1075.0,44.0 L 1078.0,44.0 L 1082.0,42.0 L 1086.0,42.0 L 1088.0,44.0 L 1084.0,47.0 L 1081.0,63.0 L 1081.0,69.0 L 1079.0,72.0 L 1079.0,77.0 L 1077.0,79.0 L 1075.0,90.0 L 1073.0,92.0 L 1073.0,95.0 L 1071.0,97.0 L 1069.0,104.0 L 1066.0,108.0 L 1064.0,114.0 L 1054.0,126.0 L 1053.0,129.0 L 1044.0,138.0 L 1044.0,141.0 L 1049.0,141.0 L 1059.0,137.0 L 1068.0,131.0 L 1083.0,114.0 L 1088.0,105.0 L 1088.0,103.0 L 1090.0,101.0 L 1090.0,99.0 L 1092.0,97.0 L 1092.0,95.0 L 1094.0,93.0 L 1094.0,91.0 L 1096.0,89.0 L 1096.0,86.0 L 1098.0,84.0 L 1101.0,71.0 L 1103.0,68.0 L 1103.0,61.0 L 1105.0,59.0 L 1105.0,48.0 L 1106.0,47.0 L 1105.0,43.0 L 1099.0,43.0 L 1094.0,45.0 L 1089.0,45.0 L 1087.0,43.0 L 1090.0,40.0 L 1098.0,38.0 L 1100.0,36.0 L 1114.0,30.0 L 1114.0,26.0 L 1107.0,8.0 L 1105.0,8.0 L 1095.0,14.0 L 1078.0,19.0 L 1053.0,18.0 L 1040.0,14.0 L 1037.0,12.0 L 1033.0,12.0 L 1030.0,10.0 L 1025.0,10.0 L 1022.0,8.0 L 1016.0,8.0 L 1013.0,6.0 L 999.0,6.0 Z M 1029.0,36.0 L 1034.0,41.0 L 1032.0,43.0 L 1032.0,47.0 L 1030.0,49.0 L 1030.0,53.0 L 1025.0,69.0 L 1025.0,76.0 L 1023.0,79.0 L 1025.0,85.0 L 1028.0,85.0 L 1031.0,77.0 L 1034.0,61.0 L 1036.0,59.0 L 1036.0,54.0 L 1038.0,52.0 L 1038.0,42.0 L 1040.0,40.0 L 1043.0,42.0 L 1050.0,43.0 L 1052.0,45.0 L 1047.0,49.0 L 1041.0,61.0 L 1040.0,70.0 L 1038.0,72.0 L 1038.0,77.0 L 1036.0,79.0 L 1036.0,85.0 L 1034.0,87.0 L 1034.0,94.0 L 1033.0,95.0 L 1034.0,103.0 L 1038.0,102.0 L 1038.0,100.0 L 1040.0,98.0 L 1040.0,95.0 L 1042.0,93.0 L 1042.0,90.0 L 1044.0,87.0 L 1045.0,80.0 L 1047.0,76.0 L 1047.0,71.0 L 1049.0,68.0 L 1049.0,63.0 L 1051.0,61.0 L 1051.0,56.0 L 1053.0,53.0 L 1053.0,47.0 L 1055.0,45.0 L 1066.0,45.0 L 1068.0,47.0 L 1066.0,49.0 L 1066.0,53.0 L 1062.0,59.0 L 1062.0,63.0 L 1058.0,70.0 L 1058.0,74.0 L 1053.0,86.0 L 1053.0,90.0 L 1051.0,93.0 L 1051.0,96.0 L 1049.0,98.0 L 1049.0,101.0 L 1047.0,103.0 L 1047.0,106.0 L 1045.0,108.0 L 1045.0,111.0 L 1040.0,123.0 L 1040.0,127.0 L 1036.0,133.0 L 1033.0,129.0 L 1032.0,123.0 L 1029.0,117.0 L 1029.0,113.0 L 1025.0,105.0 L 1025.0,102.0 L 1023.0,100.0 L 1023.0,95.0 L 1021.0,93.0 L 1021.0,89.0 L 1019.0,86.0 L 1017.0,75.0 L 1021.0,67.0 L 1021.0,63.0 L 1023.0,61.0 L 1023.0,55.0 L 1025.0,53.0 L 1025.0,48.0 L 1027.0,46.0 L 1027.0,42.0 L 1029.0,40.0 L 1027.0,38.0 Z M 1000.0,25.0 L 1026.0,34.0 L 1028.0,36.0 L 1026.0,38.0 L 1021.0,38.0 L 1019.0,41.0 L 1019.0,46.0 L 1017.0,50.0 L 1016.0,59.0 L 1014.0,61.0 L 1010.0,58.0 L 1010.0,55.0 L 1006.0,48.0 L 1005.0,42.0 L 998.0,28.0 Z"/>
  </g>
</svg>
