<svg xmlns="http://www.w3.org/2000/svg" viewBox="974 6 140 136" width="140" height="136" role="img" aria-label="Planeir harp">
  <g fill="#F3F8FF" fill-rule="evenodd">
    <path d="M 987.0,10.0 L 976.0,21.0 L 974.0,28.0 L 975.0,39.0 L 978.0,45.0 L 984.0,52.0 L 984.0,54.0 L 993.0,70.0 L 993.0,74.0 L 997.0,81.0 L 997.0,86.0 L 999.0,88.0 L 1002.0,101.0 L 1004.0,103.0 L 1004.0,107.0 L 1006.0,110.0 L 1006.0,113.0 L 1008.0,115.0 L 1008.0,119.0 L 1012.0,126.0 L 1015.0,137.0 L 1018.0,140.0 L 1023.0,142.0 L 1033.0,142.0 L 1044.0,132.0 L 1049.0,125.0 L 1049.0,122.0 L 1051.0,120.0 L 1051.0,118.0 L 1055.0,111.0 L 1055.0,108.0 L 1057.0,106.0 L 1057.0,103.0 L 1060.0,98.0 L 1060.0,95.0 L 1062.0,93.0 L 1062.0,89.0 L 1064.0,87.0 L 1064.0,83.0 L 1068.0,74.0 L 1068.0,70.0 L 1070.0,67.0 L 1070.0,63.0 L 1073.0,54.0 L 1073.0,46.0 L 1075.0,44.0 L 1078.0,44.0 L 1082.0,42.0 L 1086.0,42.0 L 1088.0,44.0 L 1084.0,47.0 L 1081.0,63.0 L 1081.0,69.0 L 1079.0,72.0 L 1079.0,77.0 L 1077.0,79.0 L 1075.0,90.0 L 1073.0,92.0 L 1073.0,95.0 L 1071.0,97.0 L 1069.0,104.0 L 1066.0,108.0 L 1064.0,114.0 L 1054.0,126.0 L 1053.0,129.0 L 1044.0,138.0 L 1044.0,141.0 L 1049.0,141.0 L 1059.0,137.0 L 1068.0,131.0 L 1083.0,114.0 L 1088.0,105.0 L 1088.0,103.0 L 1090.0,101.0 L 1090.0,99.0 L 1092.0,97.0 L 1092.0,95.0 L 1094.0,93.0 L 1094.0,91.0 L 1096.0,89.0 L 1096.0,86.0 L 1098.0,84.0 L 1101.0,71.0 L 1103.0,68.0 L 1103.0,61.0 L 1105.0,59.0 L 1105.0,48.0 L 1106.0,47.0 L 1105.0,43.0 L 1099.0,43.0 L 1094.0,45.0 L 1089.0,45.0 L 1087.0,43.0 L 1090.0,40.0 L 1098.0,38.0 L 1100.0,36.0 L 1114.0,30.0 L 1114.0,26.0 L 1107.0,8.0 L 1105.0,8.0 L 1095.0,14.0 L 1078.0,19.0 L 1053.0,18.0 L 1040.0,14.0 L 1037.0,12.0 L 1033.0,12.0 L 1030.0,10.0 L 1025.0,10.0 L 1022.0,8.0 L 1016.0,8.0 L 1013.0,6.0 L 999.0,6.0 Z M 1029.0,36.0 L 1034.0,41.0 L 1032.0,43.0 L 1032.0,47.0 L 1030.0,49.0 L 1030.0,53.0 L 1025.0,69.0 L 1025.0,76.0 L 1023.0,79.0 L 1025.0,85.0 L 1028.0,85.0 L 1031.0,77.0 L 1034.0,61.0 L 1036.0,59.0 L 1036.0,54.0 L 1038.0,52.0 L 1038.0,42.0 L 1040.0,40.0 L 1043.0,42.0 L 1050.0,43.0 L 1052.0,45.0 L 1047.0,49.0 L 1041.0,61.0 L 1040.0,70.0 L 1038.0,72.0 L 1038.0,77.0 L 1036.0,79.0 L 1036.0,85.0 L 1034.0,87.0 L 1034.0,94.0 L 1033.0,95.0 L 1034.0,103.0 L 1038.0,102.0 L 1038.0,100.0 L 1040.0,98.0 L 1040.0,95.0 L 1042.0,93.0 L 1042.0,90.0 L 1044.0,87.0 L 1045.0,80.0 L 1047.0,76.0 L 1047.0,71.0 L 1049.0,68.0 L 1049.0,63.0 L 1051.0,61.0 L 1051.0,56.0 L 1053.0,53.0 L 1053.0,47.0 L 1055.0,45.0 L 1066.0,45.0 L 1068.0,47.0 L 1066.0,49.0 L 1066.0,53.0 L 1062.0,59.0 L 1062.0,63.0 L 1058.0,70.0 L 1058.0,74.0 L 1053.0,86.0 L 1053.0,90.0 L 1051.0,93.0 L 1051.0,96.0 L 1049.0,98.0 L 1049.0,101.0 L 1047.0,103.0 L 1047.0,106.0 L 1045.0,108.0 L 1045.0,111.0 L 1040.0,123.0 L 1040.0,127.0 L 1036.0,133.0 L 1033.0,129.0 L 1032.0,123.0 L 1029.0,117.0 L 1029.0,113.0 L 1025.0,105.0 L 1025.0,102.0 L 1023.0,100.0 L 1023.0,95.0 L 1021.0,93.0 L 1021.0,89.0 L 1019.0,86.0 L 1017.0,75.0 L 1021.0,67.0 L 1021.0,63.0 L 1023.0,61.0 L 1023.0,55.0 L 1025.0,53.0 L 1025.0,48.0 L 1027.0,46.0 L 1027.0,42.0 L 1029.0,40.0 L 1027.0,38.0 Z M 1000.0,25.0 L 1026.0,34.0 L 1028.0,36.0 L 1026.0,38.0 L 1021.0,38.0 L 1019.0,41.0 L 1019.0,46.0 L 1017.0,50.0 L 1016.0,59.0 L 1014.0,61.0 L 1010.0,58.0 L 1010.0,55.0 L 1006.0,48.0 L 1005.0,42.0 L 998.0,28.0 Z"/>
  </g>
</svg>
