<svg xmlns="http://www.w3.org/2000/svg" viewBox="0 0 960 280" width="960" height="280" role="img" aria-labelledby="title desc">
  <title id="title">Planeir wordmark</title>
  <desc id="desc">Custom lowercase planeir wordmark with a modern sans plan, refined italic eir, and an Irish harp as the dot above the i.</desc>
  <defs>
    <mask id="mask-p" x="0" y="0" width="160" height="252" maskUnits="userSpaceOnUse" maskContentUnits="userSpaceOnUse">
      <rect x="0" y="0" width="160" height="252" fill="#000"/>
      <rect x="16" y="104" width="36" height="136" rx="18" fill="#fff"/>
      <path d="M52 104H88C130 104 156 122 156 147C156 173 128 188 89 188H52Z" fill="#fff"/>
      <ellipse cx="100" cy="147" rx="26" ry="21" fill="#000"/>
    </mask>
    <mask id="mask-a" x="0" y="0" width="156" height="224" maskUnits="userSpaceOnUse" maskContentUnits="userSpaceOnUse">
      <rect x="0" y="0" width="156" height="224" fill="#000"/>
      <ellipse cx="66" cy="148" rx="54" ry="44" fill="#fff"/>
      <rect x="92" y="104" width="38" height="84" rx="16" fill="#fff"/>
      <rect x="66" y="104" width="46" height="26" rx="13" fill="#fff"/>
      <ellipse cx="67" cy="148" rx="23" ry="21" fill="#000"/>
    </mask>
    <mask id="mask-e" x="0" y="0" width="188" height="240" maskUnits="userSpaceOnUse" maskContentUnits="userSpaceOnUse">
      <rect x="0" y="0" width="188" height="240" fill="#000"/>
      <ellipse cx="86" cy="150" rx="66" ry="47" fill="#fff"/>
      <ellipse cx="86" cy="150" rx="31" ry="23" fill="#000"/>
      <rect x="40" y="144" width="118" height="22" rx="11" fill="#fff"/>
      <path d="M116 103H188V157L132 145Z" fill="#000"/>
    </mask>
  </defs>
  <g id="logo" style="color:#2F3338">
    <g id="wordmark" fill="currentColor">
      <g id="letter-p" transform="translate(22 0)">
        <rect x="0" y="0" width="160" height="252" fill="currentColor" mask="url(#mask-p)"/>
      </g>
      <g id="letter-l" transform="translate(174 0)">
        <rect x="10" y="72" width="30" height="116" rx="15"/>
      </g>
      <g id="letter-a" transform="translate(224 0)">
        <rect x="0" y="0" width="156" height="224" fill="currentColor" mask="url(#mask-a)"/>
      </g>
      <g id="letter-n" transform="translate(354 0)">
        <path d="M18 188V104H50V118C63 106 80 100 102 100C140 100 164 124 164 164V188H130V166C130 143 118 129 100 129C78 129 64 144 64 169V188Z"/>
      </g>
      <g id="letter-e" transform="translate(516 0) skewX(-7)">
        <rect x="0" y="0" width="188" height="240" fill="currentColor" mask="url(#mask-e)"/>
      </g>
      <g id="letter-i" transform="translate(664 0) skewX(-7)">
        <path d="M22 92H45L42 104H18ZM19 104H42L36 188H12ZM12 188H36L44 200H7Z"/>
      </g>
      <g id="letter-r" transform="translate(708 0) skewX(-7)">
        <path d="M18 188V104H48V120C59 107 74 100 92 100C116 100 130 113 130 131C130 146 120 156 103 161L136 188H97L63 165V188Z"/>
      </g>
    </g>
    <g id="harp" transform="translate(677 48) scale(0.72)">
      <g id="harp-body" fill="currentColor">
        <path fill-rule="evenodd" d="M19 8C28 1 40 0 52 4C55 5 58 6 61 4L63 11C58 14 52 15 47 15C46 23 43 31 41 38C37 53 30 66 20 77C14 84 8 89 2 92C-4 74-3 54 1 36C5 21 10 12 19 8ZM20 17C14 22 10 30 8 41C5 54 5 65 8 75C13 71 17 65 22 57C29 45 34 31 36 17C31 15 26 15 20 17Z"/>
      </g>
      <g id="harp-strings" fill="currentColor">
        <path d="M17 28L21 26L18 61L14 63Z"/>
        <path d="M24 23L28 21L25 56L21 58Z"/>
        <path d="M31 19L35 19L33 49L29 51Z"/>
        <path d="M38 18L42 19L40 42L36 44Z"/>
      </g>
    </g>
  </g>
</svg>
