<svg xmlns="http://www.w3.org/2000/svg" viewBox="0 0 128 128" fill="none">
  <path
    d="M94 18C80 24 61 24 46 18C38 15 29 17 22 24C14 32 11 44 15 55L31 102C35 114 48 119 58 113C64 109 69 102 71 94L81 50C82 47 86 47 87 50L86 92C86 107 100 117 114 111C121 108 127 102 129 94L145 51C149 41 147 29 139 21C132 14 103 14 94 18Z"
    transform="translate(-16)"
    fill="#d6dee9"
    fill-opacity="0.92"
  />
  <path d="M46 35L38 86" stroke="#07101d" stroke-width="6" stroke-linecap="round" />
  <path d="M58 33L49 95" stroke="#07101d" stroke-width="6" stroke-linecap="round" />
  <path d="M70 33L61 97" stroke="#07101d" stroke-width="6" stroke-linecap="round" />
  <path d="M82 36L72 95" stroke="#07101d" stroke-width="6" stroke-linecap="round" />
</svg>
